<svg width="426" height="193" version="1.1" xmlns="http://www.w3.org/2000/svg" desc="Created with imagetracer.js version 1.2.6" ><path fill="rgb(0,0,0)" stroke="rgb(0,0,0)" stroke-width="1" opacity="0" d="M 0 0 L 426 0 L 426 193 L 0 193 L 0 0 Z M 64 8 L 65 11 L 65 14 L 66 15 L 66 18 L 67 19 L 67 23 Q 69 24 67 25 L 68 26 L 68 33 L 70 38 L 70 45 L 72 51 L 72 57 L 73 58 L 73 70 L 74 71 L 74 87 L 75 88 L 75 113 L 76 115 Q 74 116 76 117 L 76 128 L 75 129 L 75 138 L 74 139 L 74 148 L 72 152 L 72 156 L 69 165 L 65 172 L 58 178 L 52 178 Q 51 176 48 177 L 46 175 L 42 174 L 33 167 L 29 163 L 27 161 L 19 152 Q 20 148 18 149 L 11 137 L 10 134 L 10 128 L 14 124 Q 15 122 20 123 L 21 122 L 28 122 L 28 120 L 26 119 L 23 119 L 22 118 L 12 120 L 9 123 L 8 126 L 8 133 L 7 134 L 13 147 Q 12 149 15 148 L 19 158 L 25 165 L 39 177 L 49 182 L 60 182 L 67 177 L 68 177 L 68 176 L 71 172 L 71 169 L 73 167 L 73 164 L 75 162 L 75 156 L 78 147 L 78 144 Q 76 143 78 142 L 77 140 L 78 139 L 78 132 L 79 131 L 78 128 L 78 122 L 79 121 Q 80 117 78 117 L 78 97 Q 76 96 78 95 L 77 94 L 77 78 L 76 77 L 75 57 Q 73 55 74 51 L 73 50 L 72 39 L 70 34 L 69 19 L 66 10 Q 67 7 64 8 Z M 180 60 Q 179 63 181 64 L 180 66 L 180 109 Q 178 110 180 111 L 180 155 L 179 156 L 179 169 Q 177 169 178 174 L 181 175 L 182 174 L 184 168 L 184 155 L 185 154 L 184 152 L 185 149 L 184 147 L 184 136 Q 182 135 184 134 Q 185 129 183 129 L 184 126 Q 185 122 183 122 L 183 103 L 182 102 L 183 99 L 182 98 L 182 90 L 181 89 L 182 87 L 182 68 L 184 67 Q 183 70 185 71 L 186 82 L 187 83 L 187 89 L 188 90 L 189 103 Q 191 104 189 105 L 190 106 L 191 117 L 192 118 L 192 125 L 193 126 L 193 131 Q 195 131 194 134 L 197 135 L 199 134 L 202 129 Q 201 124 203 124 Q 204 120 202 120 L 203 113 L 202 110 Q 201 106 203 106 L 203 100 L 204 99 L 204 94 L 205 93 L 205 87 L 207 81 L 207 77 L 208 76 Q 206 70 210 71 Q 209 74 211 76 L 211 80 L 213 85 L 214 97 L 215 98 L 216 123 L 217 124 L 218 139 L 219 140 L 219 147 Q 221 148 220 153 L 221 154 L 222 169 L 223 170 L 223 174 L 228 174 L 228 170 L 226 165 L 227 163 L 226 161 L 226 153 L 225 150 Q 223 149 225 148 L 224 147 L 224 137 L 223 134 Q 221 133 223 132 Q 224 128 222 128 L 222 122 L 221 121 L 220 106 L 218 101 L 219 99 L 218 98 L 218 90 L 216 84 L 216 80 L 213 74 L 213 70 L 209 64 L 207 66 Q 208 69 206 70 L 206 75 L 204 80 L 203 91 L 202 92 L 202 97 L 201 98 L 201 105 L 200 106 L 200 113 L 201 114 Q 199 116 200 123 L 199 124 Q 200 126 197 125 L 197 120 L 196 119 L 196 112 L 194 106 L 194 102 L 193 101 L 194 99 L 193 92 L 192 91 L 192 81 L 191 80 L 190 70 L 186 62 L 185 60 L 180 60 Z M 362 71 L 362 78 Q 360 79 362 80 Q 360 82 361 89 Q 357 90 360 92 L 359 93 L 359 98 L 357 102 L 357 108 L 354 115 L 353 122 L 352 121 L 348 121 L 342 123 L 340 125 L 333 128 L 326 134 L 324 134 L 324 139 L 323 140 Q 322 146 324 150 L 329 154 L 331 154 L 334 156 Q 339 157 340 154 Q 342 155 341 152 L 343 152 L 343 150 L 345 150 L 350 143 L 350 141 L 352 138 L 352 135 L 355 129 L 356 121 L 357 120 L 356 118 L 358 114 L 358 111 Q 360 110 358 109 L 359 103 L 361 100 L 361 96 L 363 91 Q 365 90 363 89 L 363 87 L 365 84 L 364 82 L 366 76 L 381 98 L 382 102 L 398 133 L 409 147 L 411 151 L 420 160 L 422 160 L 414 149 L 414 147 L 406 137 Q 407 134 404 135 L 403 131 L 397 123 L 397 120 L 391 112 L 387 100 L 382 93 L 382 91 L 376 85 L 375 82 L 368 73 L 367 71 L 362 71 Z M 104 109 L 97 117 L 96 123 L 95 124 L 95 128 L 94 129 L 94 137 Q 96 138 95 143 L 99 154 L 105 159 L 109 159 L 112 155 L 113 145 L 114 144 L 114 136 L 113 135 L 113 131 L 111 127 L 110 118 L 109 117 L 110 112 Q 109 108 104 109 Z M 130 122 Q 128 123 128 126 L 125 128 L 123 130 Q 124 133 122 134 Q 123 138 121 140 L 121 150 Q 119 151 120 156 L 119 157 L 119 162 L 122 162 L 124 160 L 124 153 L 125 152 L 125 138 Q 127 137 125 136 L 127 130 L 131 126 Q 135 125 137 127 L 146 140 L 153 155 L 155 161 L 155 164 L 157 165 L 159 164 L 159 160 L 156 153 L 154 151 L 154 147 L 147 137 Q 148 133 145 134 L 144 131 L 141 127 L 135 122 L 130 122 Z M 247 123 L 245 124 L 236 134 L 234 141 L 231 142 L 231 145 L 234 150 L 234 157 L 238 167 Q 240 170 248 169 L 251 165 L 251 159 L 249 159 L 248 163 Q 247 166 243 165 L 243 164 L 240 160 L 239 153 L 238 152 L 238 145 Q 242 145 244 142 Q 246 143 245 141 L 248 139 L 249 138 Q 248 133 251 132 Q 252 127 250 125 Q 250 123 247 123 Z M 298 125 Q 296 128 295 126 L 287 131 L 279 140 L 279 142 L 278 145 Q 277 150 279 153 L 282 154 L 284 157 Q 290 158 294 156 L 297 151 L 297 148 L 300 146 L 302 153 L 305 154 L 308 150 Q 307 145 309 145 Q 310 140 308 139 L 312 132 Q 316 133 315 130 L 318 130 Q 319 134 322 133 Q 323 128 320 127 L 317 128 L 312 128 L 309 130 L 307 130 L 307 126 L 305 126 L 305 143 L 304 144 L 302 142 L 301 131 L 300 128 Q 301 124 298 125 Z M 263 129 L 261 130 L 257 134 Q 258 137 256 139 L 256 146 L 255 147 L 255 154 L 254 155 Q 253 158 256 159 L 260 154 L 260 147 L 259 146 L 259 137 L 260 135 Q 261 131 264 132 L 269 143 L 271 154 L 272 155 L 272 159 L 274 160 Q 277 161 277 159 L 276 151 L 274 148 L 274 144 L 270 138 L 270 135 L 268 133 Q 269 130 266 131 L 266 129 L 263 129 Z " /><path fill="rgb(0,0,0)" stroke="rgb(0,0,0)" stroke-width="1" opacity="0" d="M 105.5 114 L 105.5 115 L 105.5 114 Z " /><path fill="rgb(0,0,0)" stroke="rgb(0,0,0)" stroke-width="1" opacity="0" d="M 102.5 118 Q 105.12 117.17 104 120.5 L 103 122.5 Q 104.19 125 108 124 L 108 126.5 L 110 130.5 L 110 134.5 L 111 135.5 L 111 143.5 L 110 144.5 L 109 150.5 L 106.5 154 Q 103.17 155.13 104 152.5 L 102 150.5 L 98 140.5 L 98 128.5 L 99 127.5 L 100 121.5 L 102.5 118 Z " /><path fill="rgb(0,0,0)" stroke="rgb(0,0,0)" stroke-width="1" opacity="0" d="M 349.5 127 Q 352.13 126.17 351 129.5 L 346 141.5 L 340.5 148 L 337.5 150 L 331.5 150 L 329 147.5 L 328 140.5 L 331 139 L 331 137.5 L 335.5 133 L 337.5 133 L 339.5 131 L 349.5 127 Z " /><path fill="rgb(0,0,0)" stroke="rgb(0,0,0)" stroke-width="1" opacity="0" d="M 245.5 129 Q 247.75 128.25 247 130.5 L 245 135.5 L 241.5 139 L 239.5 140 L 240 138.5 L 242 134.5 L 242 131 Q 244.5 131.5 245.5 129 Z " /><path fill="rgb(0,0,0)" stroke="rgb(0,0,0)" stroke-width="1" opacity="0" d="M 292.5 133 L 297 133 L 297 140.5 L 294 149.5 L 290.5 153 Q 284.25 154.25 283 150.5 L 281 144.5 L 285.5 138 L 292.5 133 Z " /><path fill="rgb(0,0,0)" stroke="rgb(0,0,0)" stroke-width="1" opacity="0" d="M 303.5 145 L 303.5 146 L 303.5 145 Z " /><path fill="rgb(0,0,0)" stroke="rgb(0,0,0)" stroke-width="1" opacity="0.9372549019607843" d="M 207.5 65 L 207.5 66 L 207.5 65 Z " /><path fill="rgb(0,0,0)" stroke="rgb(0,0,0)" stroke-width="1" opacity="0.9372549019607843" d="M 206.5 69 L 206.5 70 L 206.5 69 Z " /><path fill="rgb(0,0,0)" stroke="rgb(0,0,0)" stroke-width="1" opacity="0.9372549019607843" d="M 208.5 70 L 208.5 71 L 208.5 70 Z " /><path fill="rgb(0,0,0)" stroke="rgb(0,0,0)" stroke-width="1" opacity="0.9372549019607843" d="M 205.5 75 L 205.5 76 L 205.5 75 Z " /><path fill="rgb(0,0,0)" stroke="rgb(0,0,0)" stroke-width="1" opacity="0.9372549019607843" d="M 207.5 75 L 207.5 76 L 207.5 75 Z " /><path fill="rgb(0,0,0)" stroke="rgb(0,0,0)" stroke-width="1" opacity="0.9372549019607843" d="M 204.5 79 L 204.5 80 L 204.5 79 Z " /><path fill="rgb(0,0,0)" stroke="rgb(0,0,0)" stroke-width="1" opacity="0.9372549019607843" d="M 206.5 80 L 206.5 81 L 206.5 80 Z " /><path fill="rgb(0,0,0)" stroke="rgb(0,0,0)" stroke-width="1" opacity="0.9372549019607843" d="M 203.5 85 L 204 86.5 L 203 86.5 L 203.5 85 Z " /><path fill="rgb(0,0,0)" stroke="rgb(0,0,0)" stroke-width="1" opacity="0.9372549019607843" d="M 205.5 85 L 205.5 86 L 205.5 85 Z " /><path fill="rgb(0,0,0)" stroke="rgb(0,0,0)" stroke-width="1" opacity="0.9372549019607843" d="M 181.5 86 L 181.5 87 L 181.5 86 Z " /><path fill="rgb(0,0,0)" stroke="rgb(0,0,0)" stroke-width="1" opacity="0.9372549019607843" d="M 202.5 91 L 202.5 92 L 202.5 91 Z " /><path fill="rgb(0,0,0)" stroke="rgb(0,0,0)" stroke-width="1" opacity="0.9372549019607843" d="M 204.5 92 L 204.5 93 L 204.5 92 Z " /><path fill="rgb(0,0,0)" stroke="rgb(0,0,0)" stroke-width="1" opacity="0.9372549019607843" d="M 201.5 97 L 201.5 98 L 201.5 97 Z " /><path fill="rgb(0,0,0)" stroke="rgb(0,0,0)" stroke-width="1" opacity="0.9372549019607843" d="M 203.5 98 L 203.5 99 L 203.5 98 Z " /><path fill="rgb(0,0,0)" stroke="rgb(0,0,0)" stroke-width="1" opacity="0.9372549019607843" d="M 129.5 122 L 130 123.5 L 129 126.5 L 126.5 129 L 124 128.5 L 128 125.5 Q 127.5 122.5 129.5 122 Z " /><path fill="rgb(0,0,0)" stroke="rgb(0,0,0)" stroke-width="1" opacity="0.9372549019607843" d="M 8.5 125 L 8.5 126 L 8.5 125 Z " /><path fill="rgb(0,0,0)" stroke="rgb(0,0,0)" stroke-width="1" opacity="0.9372549019607843" d="M 98.5 126 L 99 127.5 L 97.5 132 L 97 127.5 L 98.5 126 Z " /><path fill="rgb(0,0,0)" stroke="rgb(0,0,0)" stroke-width="1" opacity="0.9372549019607843" d="M 305.5 126 L 307 126.5 L 305.5 127 L 305.5 126 Z " /><path fill="rgb(0,0,0)" stroke="rgb(0,0,0)" stroke-width="1" opacity="0.9372549019607843" d="M 311.5 128 L 311.5 129 L 311.5 128 Z " /><path fill="rgb(0,0,0)" stroke="rgb(0,0,0)" stroke-width="1" opacity="0.9372549019607843" d="M 262.5 129 L 262.5 130 L 262.5 129 Z " /><path fill="rgb(0,0,0)" stroke="rgb(0,0,0)" stroke-width="1" opacity="0.9372549019607843" d="M 260.5 130 L 260.5 131 L 260.5 130 Z " /><path fill="rgb(0,0,0)" stroke="rgb(0,0,0)" stroke-width="1" opacity="0.9372549019607843" d="M 318.5 130 L 318.5 131 L 318.5 130 Z " /><path fill="rgb(0,0,0)" stroke="rgb(0,0,0)" stroke-width="1" opacity="0.9372549019607843" d="M 314.5 131 L 314.5 132 L 314.5 131 Z " /><path fill="rgb(0,0,0)" stroke="rgb(0,0,0)" stroke-width="1" opacity="0.9372549019607843" d="M 258.5 132 Q 260 133 257.5 134 Q 256 133 258.5 132 Z " /><path fill="rgb(0,0,0)" stroke="rgb(0,0,0)" stroke-width="1" opacity="0.9372549019607843" d="M 261.5 132 L 262 132.5 L 259.5 135 L 259 134.5 L 261.5 132 Z " /><path fill="rgb(0,0,0)" stroke="rgb(0,0,0)" stroke-width="1" opacity="0.9372549019607843" d="M 10.5 134 L 10.5 135 L 10.5 134 Z " /><path fill="rgb(0,0,0)" stroke="rgb(0,0,0)" stroke-width="1" opacity="0.9372549019607843" d="M 309.5 134 L 309.5 135 L 309.5 134 Z " /><path fill="rgb(0,0,0)" stroke="rgb(0,0,0)" stroke-width="1" opacity="0.9372549019607843" d="M 8.5 135 L 8.5 136 L 8.5 135 Z " /><path fill="rgb(0,0,0)" stroke="rgb(0,0,0)" stroke-width="1" opacity="0.9372549019607843" d="M 308.5 136 L 308.5 137 L 308.5 136 Z " /><path fill="rgb(0,0,0)" stroke="rgb(0,0,0)" stroke-width="1" opacity="0.9372549019607843" d="M 11.5 137 L 11.5 138 L 11.5 137 Z " /><path fill="rgb(0,0,0)" stroke="rgb(0,0,0)" stroke-width="1" opacity="0.9372549019607843" d="M 9.5 138 L 9.5 139 L 9.5 138 Z " /><path fill="rgb(0,0,0)" stroke="rgb(0,0,0)" stroke-width="1" opacity="0.9372549019607843" d="M 12.5 139 L 12.5 140 L 12.5 139 Z " /><path fill="rgb(0,0,0)" stroke="rgb(0,0,0)" stroke-width="1" opacity="0.9372549019607843" d="M 10.5 140 L 10.5 141 L 10.5 140 Z " /><path fill="rgb(0,0,0)" stroke="rgb(0,0,0)" stroke-width="1" opacity="0.9372549019607843" d="M 11.5 142 L 11.5 143 L 11.5 142 Z " /><path fill="rgb(0,0,0)" stroke="rgb(0,0,0)" stroke-width="1" opacity="0.9372549019607843" d="M 12.5 145 L 12.5 146 L 12.5 145 Z " /><path fill="rgb(0,0,0)" stroke="rgb(0,0,0)" stroke-width="1" opacity="0.9372549019607843" d="M 17.5 149 Q 19.75 148.25 19 150.5 L 18.5 151 Q 16 150 17.5 149 Z " /><path fill="rgb(0,0,0)" stroke="rgb(0,0,0)" stroke-width="1" opacity="0.9372549019607843" d="M 179.5 174 L 179.5 175 L 179.5 174 Z " /><path fill="rgb(0,0,0)" stroke="rgb(0,0,0)" stroke-width="1" opacity="0.9372549019607843" d="M 48.5 181 L 60 181.5 L 48.5 182 L 48.5 181 Z " /><path fill="rgb(0,0,0)" stroke="rgb(0,0,0)" stroke-width="1" opacity="1" d="M 64 8 Q 66.67 6.88 66 9.5 L 69 18.5 L 70 33.5 L 72 38.5 L 73 49.5 L 74 50.5 Q 72.75 55.25 75 56.5 L 76 76.5 L 77 77.5 L 77 93.5 L 78 94.5 Q 76 95.5 78 96.5 L 78 116.5 Q 79.75 117.25 79 120.5 L 78 121.5 L 78 127.5 L 79 130.5 L 78 131.5 L 78 138.5 L 77 139.5 L 78 141.5 Q 76 142.5 78 143.5 L 78 146.5 L 75 155.5 L 75 161.5 L 73 163.5 L 73 166.5 L 71 168.5 L 71 171.5 L 68 175.5 L 68 177 L 66.5 177 L 61.5 181 L 46.5 181 Q 33.25 175.25 25 164.5 L 19 157.5 L 15 148 Q 12 149.25 13 145.5 L 9 137.5 L 9 135.5 L 7 133.5 L 8 132.5 L 8 126.5 Q 9.75 125.75 9 122.5 L 11.5 120 L 21.5 118 L 22.5 119 L 25.5 119 L 28 120 L 27.5 122 L 20.5 122 L 19.5 123 Q 15.33 122.33 13.5 124 L 10 127.5 L 10 134.5 L 11 137.5 L 14 141.5 L 14 143.5 L 16 145.5 L 17 149.5 L 26.5 161 L 29 162.5 L 32.5 167 L 41.5 174 L 45.5 175 L 47.5 177 Q 50.75 176.25 51.5 178 L 57.5 178 L 65 171.5 L 69 164.5 L 72 155.5 L 72 151.5 L 74 147.5 L 74 138.5 L 75 137.5 L 75 128.5 L 76 127.5 L 76 116.5 Q 74 115.5 76 114.5 L 75 112.5 L 75 87.5 L 74 86.5 L 74 70.5 L 73 69.5 L 73 57.5 L 72 56.5 L 72 50.5 L 70 44.5 L 70 37.5 L 68 32.5 L 68 25.5 L 67 24.5 Q 69 23.5 67 22.5 L 67 18.5 L 66 17.5 L 66 14.5 L 65 13.5 L 65 10.5 L 64 8 Z " /><path fill="rgb(0,0,0)" stroke="rgb(0,0,0)" stroke-width="1" opacity="1" d="M 180 60 L 184.5 60 L 186 61.5 L 190 69.5 L 191 79.5 L 192 80.5 L 192 90.5 L 193 91.5 L 194 98.5 L 193 100.5 L 194 101.5 L 194 105.5 L 196 111.5 L 196 118.5 L 197 119.5 L 197 125 Q 199.67 126.12 199 123.5 L 200 122.5 Q 198.83 116.33 201 113.5 L 200 112.5 L 200 105.5 L 201 104.5 L 201 98.5 L 202 97.5 L 202 92.5 L 204 86.5 L 204 80.5 L 206 75.5 L 206 70.5 L 208.5 64 L 213 69.5 L 213 73.5 L 216 79.5 L 216 83.5 L 218 89.5 L 218 97.5 L 219 98.5 L 218 100.5 L 220 105.5 L 221 120.5 L 222 121.5 L 222 127.5 Q 223.75 128.25 223 131.5 Q 221 132.5 223 133.5 L 224 136.5 L 224 146.5 L 225 147.5 Q 223 148.5 225 149.5 L 226 152.5 L 226 160.5 L 227 162.5 L 226 164.5 L 228 169.5 L 228 174 L 223 174 L 223 169.5 L 222 168.5 L 221 153.5 L 220 152.5 Q 221.25 147.75 219 146.5 L 219 139.5 L 218 138.5 L 217 123.5 L 216 122.5 L 215 97.5 L 214 96.5 L 214 91.5 L 213 90.5 L 213 84.5 L 211 79.5 L 211 75.5 Q 209.25 74.75 210 71.5 L 208.5 70 L 208 74.5 L 207 75.5 L 207 79.5 L 206 80.5 L 206 84.5 L 205 85.5 L 205 91.5 L 204 92.5 L 204 97.5 L 203 98.5 L 203 105.5 Q 201.25 106.25 202 109.5 L 203 112.5 L 202 119.5 Q 203.75 120.25 203 123.5 Q 201 124.5 202 128.5 L 198.5 134 L 196.5 135 L 194 134 Q 194.75 131.42 193 130.5 L 193 125.5 L 192 124.5 L 192 117.5 L 191 116.5 L 190 105.5 L 189 104.5 Q 191 103.5 189 102.5 L 188 89.5 L 187 88.5 L 187 82.5 L 186 81.5 L 185 70.5 Q 183.25 69.58 184 67 L 182 67.5 L 182 85.5 L 181 88.5 L 182 89.5 L 182 97.5 L 183 98.5 L 182 101.5 L 183 102.5 L 183 121.5 Q 184.75 122.25 184 125.5 L 183 128.5 Q 185 129.5 184 133.5 Q 182 134.5 184 135.5 L 184 146.5 L 185 148.5 L 184 151.5 L 185 153.5 L 184 154.5 L 184 167.5 L 182 173.5 L 180.5 175 L 178 174 L 178 169.5 L 179 168.5 L 179 155.5 L 180 154.5 L 180 110.5 Q 178 109.5 180 108.5 L 180 65.5 L 181 63.5 Q 179.25 62.58 180 60 Z " /><path fill="rgb(0,0,0)" stroke="rgb(0,0,0)" stroke-width="1" opacity="1" d="M 362 71 L 366.5 71 L 368 72.5 L 375 81.5 L 376 84.5 L 382 90.5 L 382 92.5 L 387 99.5 L 391 111.5 L 397 119.5 L 397 122.5 L 403 130.5 L 404 135 Q 406.67 133.88 406 136.5 L 414 146.5 L 414 148.5 L 422 159.5 L 419.5 160 L 411 150.5 L 409 146.5 L 398 132.5 L 382 101.5 L 381 97.5 L 365.5 76 L 364 81.5 L 365 83.5 L 363 86.5 L 363 88.5 Q 365 89.5 363 90.5 L 361 95.5 L 361 99.5 L 359 102.5 L 358 108.5 Q 360 109.5 358 110.5 L 358 113.5 L 356 117.5 L 357 119.5 L 356 120.5 L 355 128.5 L 352 134.5 L 352 137.5 L 350 140.5 L 350 142.5 L 344.5 150 L 343 150 L 343 152 L 341 152 Q 342.13 154.67 339.5 154 Q 338.5 157 333.5 156 L 330.5 154 L 328.5 154 L 324 149.5 Q 321.67 146.33 323 139.5 L 324 138.5 L 324 134 L 325.5 134 L 332.5 128 L 339.5 125 L 341.5 123 L 347.5 121 L 351.5 121 L 353 121.5 L 354 114.5 L 357 107.5 L 357 101.5 L 359 97.5 L 359 92.5 L 360 91.5 Q 357.5 90 361 88.5 Q 359.83 82.33 362 79.5 Q 360 78.5 362 77.5 L 362 71 Z M 350 127 L 340 131 L 338 133 L 336 133 L 331 138 L 331 139 L 328 141 L 329 148 L 332 150 L 338 150 L 341 148 L 346 142 L 351 130 Q 352 126 350 127 Z " /><path fill="rgb(0,0,0)" stroke="rgb(0,0,0)" stroke-width="1" opacity="1" d="M 103.5 109 Q 109 108 110 111.5 L 109 116.5 L 110 117.5 L 111 126.5 L 113 130.5 L 113 134.5 L 114 135.5 L 114 143.5 L 113 144.5 L 112 154.5 L 108.5 159 L 104.5 159 L 99 153.5 L 95 142.5 Q 96.25 137.75 94 136.5 L 94 128.5 L 95 127.5 L 95 123.5 L 96 122.5 L 97 116.5 L 103.5 109 Z M 106 114 L 106 115 L 106 114 Z M 103 118 L 100 122 L 99 126 L 97 128 Q 96 131 98 133 L 98 141 L 102 151 L 104 153 Q 103 155 107 154 L 109 151 L 110 145 L 111 144 L 111 136 L 110 135 L 110 131 L 108 127 L 108 124 Q 104 125 103 123 L 104 121 Q 105 117 103 118 Z " /><path fill="rgb(0,0,0)" stroke="rgb(0,0,0)" stroke-width="1" opacity="1" d="M 130 122 L 134.5 122 L 141 126.5 L 144 130.5 L 145 134 Q 148 132.75 147 136.5 L 154 146.5 L 154 150.5 L 156 152.5 L 159 159.5 L 159 163.5 L 156.5 165 L 155 163.5 L 155 160.5 L 153 154.5 L 146 139.5 L 136.5 127 Q 134.67 125.33 130.5 126 L 127 129.5 L 125 135.5 Q 127 136.5 125 137.5 L 125 151.5 L 124 152.5 L 124 159.5 L 121.5 162 L 119 162 L 119 156.5 L 120 155.5 Q 118.75 150.75 121 149.5 L 121 139.5 L 122 138.5 L 122 133.5 Q 124 132.37 123 129 Q 127.69 130 129 126.5 L 130 122 Z " /><path fill="rgb(0,0,0)" stroke="rgb(0,0,0)" stroke-width="1" opacity="1" d="M 246.5 123 Q 249.5 122.5 250 124.5 Q 251.83 126.67 251 131.5 Q 248.4 132.9 249 137.5 L 247.5 139 L 245 140.5 Q 245.75 142.75 243.5 142 Q 241.65 144.85 238 145 L 238 151.5 L 239 152.5 L 240 159.5 L 243 163.5 L 243 165 Q 246.83 165.75 248 162.5 L 249 159 L 251 159 L 251 164.5 L 247.5 169 Q 240.25 170.25 238 166.5 L 234 156.5 L 234 149.5 L 231 144.5 L 231 142 L 234 140.5 L 236 133.5 L 244.5 124 L 246.5 123 Z M 246 129 Q 244 131 242 131 Q 243 135 240 138 Q 239 140 242 139 L 245 136 L 247 131 Q 248 128 246 129 Z M 240 139 L 240 140 L 240 139 Z " /><path fill="rgb(0,0,0)" stroke="rgb(0,0,0)" stroke-width="1" opacity="1" d="M 297.5 125 Q 301.25 123.75 300 127.5 L 301 130.5 L 302 141.5 L 303.5 144 L 305 142.5 L 305 127 L 307 127 L 307 130 L 308.5 130 L 312.5 128 L 319.5 127 Q 323 128.31 322 133 L 319 131.5 Q 319.87 128.5 315.5 130 L 309 134.5 L 308 138.5 Q 310.25 139.75 309 144.5 Q 307 145.5 308 149.5 L 304.5 154 L 302 152.5 L 300 146 L 297 147.5 L 297 150.5 L 293.5 156 Q 290.33 158.33 283.5 157 L 282 154 L 279 152.5 Q 277 150 278 144.5 L 279 141.5 L 279 139.5 L 286.5 131 L 294.5 126 Q 296 128.5 297.5 125 Z M 293 133 L 286 138 L 281 145 L 283 151 Q 284 154 291 153 L 294 150 L 297 141 L 297 133 L 293 133 Z M 304 145 L 304 146 L 304 145 Z " /><path fill="rgb(0,0,0)" stroke="rgb(0,0,0)" stroke-width="1" opacity="1" d="M 263.5 129 L 266 129 L 266 131 Q 268.67 129.88 268 132.5 L 270 134.5 L 270 137.5 L 274 143.5 L 274 147.5 L 276 150.5 L 277 158.5 Q 276.5 160.5 273.5 160 L 272 158.5 L 272 154.5 L 271 153.5 L 269 142.5 L 264 132 Q 260.17 131.25 259 134.5 Q 261 135.5 259 136.5 L 260 153.5 L 255.5 159 Q 253.25 158.25 254 154.5 L 255 153.5 L 256 138.5 L 259 131 L 263.5 129 Z " /></svg>